REM DIRINDEX 1\5,1\2\6,1\2\7,1\3\8,1\3\9,1\4\10,1\4\11,1\4\12
REM DIRNAME folder01,folder02,folder03,folder04,folder05,folder06,folder07,folder08,folder09,folder10,folder11,folder12
TITLE ""
FILE "EJ_DB3000_5th_5C_14.mp3" MP3
  TRACK 01 AUDIO
    TITLE "0:"
    INDEX 01 00:00:00
  TRACK 02 AUDIO
    TITLE "9:cjc026_05939"
    INDEX 01 00:00:05
  TRACK 03 AUDIO
    TITLE "0:"
    INDEX 01 00:01:03
  TRACK 04 AUDIO
    TITLE "8:cjc026_05940"
    INDEX 01 00:01:28
  TRACK 05 AUDIO
    TITLE "0:"
    INDEX 01 00:02:28
  TRACK 06 AUDIO
    TITLE "9:cjc026_05941"
    INDEX 01 00:02:55
  TRACK 07 AUDIO
    TITLE "0:"
    INDEX 01 00:03:57
  TRACK 08 AUDIO
    TITLE "8:cjc026_05942"
    INDEX 01 00:04:07
  TRACK 09 AUDIO
    TITLE "0:"
    INDEX 01 00:05:10
  TRACK 10 AUDIO
    TITLE "9:cjc026_05943"
    INDEX 01 00:05:36
  TRACK 11 AUDIO
    TITLE "0:"
    INDEX 01 00:06:47
  TRACK 12 AUDIO
    TITLE "8:cjc026_05944"
    INDEX 01 00:06:71
  TRACK 13 AUDIO
    TITLE "0:"
    INDEX 01 00:08:09
  TRACK 14 AUDIO
    TITLE "9:cjc026_05945"
    INDEX 01 00:08:34
  TRACK 15 AUDIO
    TITLE "0:"
    INDEX 01 00:09:28
  TRACK 16 AUDIO
    TITLE "8:cjc026_05946"
    INDEX 01 00:09:53
  TRACK 17 AUDIO
    TITLE "0:"
    INDEX 01 00:10:49
  TRACK 18 AUDIO
    TITLE "9:cjc026_05947"
    INDEX 01 00:11:01
  TRACK 19 AUDIO
    TITLE "0:"
    INDEX 01 00:11:64
  TRACK 20 AUDIO
    TITLE "8:cjc026_05948"
    INDEX 01 00:12:16
  TRACK 21 AUDIO
    TITLE "0:"
    INDEX 01 00:13:04
  TRACK 22 AUDIO
    TITLE "9:cjc026_05949"
    INDEX 01 00:13:32
  TRACK 23 AUDIO
    TITLE "0:"
    INDEX 01 00:14:29
  TRACK 24 AUDIO
    TITLE "8:cjc026_05950"
    INDEX 01 00:14:56
  TRACK 25 AUDIO
    TITLE "0:"
    INDEX 01 00:15:62
  TRACK 26 AUDIO
    TITLE "9:cjc026_05951"
    INDEX 01 00:16:12
  TRACK 27 AUDIO
    TITLE "0:"
    INDEX 01 00:17:14
  TRACK 28 AUDIO
    TITLE "8:cjc026_05952"
    INDEX 01 00:17:45
  TRACK 29 AUDIO
    TITLE "0:"
    INDEX 01 00:18:62
  TRACK 30 AUDIO
    TITLE "9:cjc026_05953"
    INDEX 01 00:19:13
  TRACK 31 AUDIO
    TITLE "0:"
    INDEX 01 00:20:00
  TRACK 32 AUDIO
    TITLE "8:cjc026_05954"
    INDEX 01 00:20:28
  TRACK 33 AUDIO
    TITLE "0:"
    INDEX 01 00:21:37
  TRACK 34 AUDIO
    TITLE "9:cjc026_05955"
    INDEX 01 00:21:62
  TRACK 35 AUDIO
    TITLE "0:"
    INDEX 01 00:22:50
  TRACK 36 AUDIO
    TITLE "8:cjc026_05956"
    INDEX 01 00:23:03
  TRACK 37 AUDIO
    TITLE "0:"
    INDEX 01 00:24:06
  TRACK 38 AUDIO
    TITLE "9:cjc026_05957"
    INDEX 01 00:24:35
  TRACK 39 AUDIO
    TITLE "0:"
    INDEX 01 00:25:31
  TRACK 40 AUDIO
    TITLE "8:cjc026_05958"
    INDEX 01 00:25:56
  TRACK 41 AUDIO
    TITLE "0:"
    INDEX 01 00:26:54
  TRACK 42 AUDIO
    TITLE "9:cjc026_05959"
    INDEX 01 00:27:06
  TRACK 43 AUDIO
    TITLE "0:"
    INDEX 01 00:27:73
  TRACK 44 AUDIO
    TITLE "8:cjc026_05960"
    INDEX 01 00:28:25
  TRACK 45 AUDIO
    TITLE "0:"
    INDEX 01 00:29:15
  TRACK 46 AUDIO
    TITLE "9:cjc026_05961"
    INDEX 01 00:29:40
  TRACK 47 AUDIO
    TITLE "0:"
    INDEX 01 00:30:44
  TRACK 48 AUDIO
    TITLE "8:cjc026_05962"
    INDEX 01 00:30:69
  TRACK 49 AUDIO
    TITLE "0:"
    INDEX 01 00:32:03
  TRACK 50 AUDIO
    TITLE "9:cjc026_05963"
    INDEX 01 00:32:29
  TRACK 51 AUDIO
    TITLE "0:"
    INDEX 01 00:33:32
  TRACK 52 AUDIO
    TITLE "8:cjc026_05964"
    INDEX 01 00:33:56
  TRACK 53 AUDIO
    TITLE "0:"
    INDEX 01 00:34:71
  TRACK 54 AUDIO
    TITLE "9:cjc026_05965"
    INDEX 01 00:35:19
  TRACK 55 AUDIO
    TITLE "0:"
    INDEX 01 00:36:29
  TRACK 56 AUDIO
    TITLE "8:cjc026_05966"
    INDEX 01 00:36:52
  TRACK 57 AUDIO
    TITLE "0:"
    INDEX 01 00:37:57
  TRACK 58 AUDIO
    TITLE "9:cjc026_05967"
    INDEX 01 00:38:08
  TRACK 59 AUDIO
    TITLE "0:"
    INDEX 01 00:38:73
  TRACK 60 AUDIO
    TITLE "8:cjc026_05968"
    INDEX 01 00:39:25
  TRACK 61 AUDIO
    TITLE "0:"
    INDEX 01 00:40:28
